<svg id="Capa_1" enable-background="new 0 0 58 59" height="512" viewBox="0 0 58 59" width="512" xmlns="http://www.w3.org/2000/svg"><path id="Shape" d="m56.4 5c-9.4.4-56.4 3.7-56.4 37v-35c0-1.1.9-2 2-2h54z" fill="#67b9cc"/><path d="m58 7v35h-58c0-33.3 47-36.6 56.4-37 .9.2 1.6 1 1.6 2z" fill="#2fa8cc"/><path d="m58 42v4c0 1.1-.9 2-2 2h-54c-1.1 0-2-.9-2-2v-4z" fill="#bdc3c7"/><path d="m40 58h-22l3-10h16z" fill="#95a5a5"/><path d="m43 59h-28c-.6 0-1-.4-1-1s.4-1 1-1h28c.6 0 1 .4 1 1s-.4 1-1 1z" fill="#bdc3c7"/><path d="m22 38h-15c-.6 0-1-.4-1-1s.4-1 1-1h15c.6 0 1 .4 1 1s-.4 1-1 1z" fill="#9fc9d3"/><path d="m51 38h-15c-.6 0-1-.4-1-1s.4-1 1-1h15c.6 0 1 .4 1 1s-.4 1-1 1z" fill="#9fc9d3"/><path d="m45 0h-32c-1.7 0-3 1.3-3 3v24c0 1.7 1.3 3 3 3h10.8l4.4 7.5c.2.3.5.5.9.5s.7-.2.9-.5l4.4-7.5h10.6c1.7 0 3-1.3 3-3v-24c0-1.7-1.3-3-3-3z" fill="#f3d55b"/><g fill="#fff"><path d="m29 16c-2.2 0-4-1.8-4-4s1.8-4 4-4 4 1.8 4 4c0 .6-.4 1-1 1s-1-.4-1-1c0-1.1-.9-2-2-2s-2 .9-2 2 .9 2 2 2c.6 0 1 .4 1 1s-.4 1-1 1z"/><path d="m29 22c-2.2 0-4-1.8-4-4 0-.6.4-1 1-1s1 .4 1 1c0 1.1.9 2 2 2s2-.9 2-2-.9-2-2-2c-.6 0-1-.4-1-1s.4-1 1-1c2.2 0 4 1.8 4 4s-1.8 4-4 4z"/><path d="m29 10c-.6 0-1-.4-1-1v-2c0-.6.4-1 1-1s1 .4 1 1v2c0 .6-.4 1-1 1z"/><path d="m29 24c-.6 0-1-.4-1-1v-2c0-.6.4-1 1-1s1 .4 1 1v2c0 .6-.4 1-1 1z"/></g></svg>